/* XPM */
static char *_397157b38bc48569ab206dacadeb6afTQyl3zy4ur2fx4hF[] = {
/* columns rows colors chars-per-pixel */
"32 32 4 1 ",
"  c #2F2E2F",
". c #39314B",
"X c #3E2F5A",
"o c #564064",
/* pixels */
"oooooooooo   oooooooooooo   oooo",
"oooXooooooo ooooooXoooXooo ooooo",
"XXXXXooXXoo ooXXoXXXoXXXoo ooXXo",
"XXX.XXXXX.o o.XXXXXXXXXX.o o.XXX",
"XX..XXXX... ...X..XXXXX... ...XX",
"......X.... .........X.... ....X",
"..........   ............   ....",
"                                ",
"oo   oooooooooooo   oooooooooooo",
"ooo ooooooXooooooo ooooooXoooXoo",
"XXo oXXoXXXXoXXXoo ooXXoXXXoXXXX",
".XX XXXXXX.XXXX..o o..XXXXXXXXXX",
"... .............. ......XX.....",
"..   ............   ............",
"                                ",
"oooooooo   ooooooooooooooo   ooo",
"ooXXooooo ooooooooooXXooooo oooo",
"XXXXXoXoo ooXXoXXXoXXXXoXoo ooXo",
"XX..XXX.o o.XXXX.XXX...XX.o o.XX",
"X..XXX... ...XX...XXXXXX... ...X",
"......... ...........XX.... ....",
"........   ...............   ...",
"                                ",
" oooooooooooooo   oooooooooooo  ",
"oooXooooooooXooo ooooooXooooooo ",
"ooXXXXoXXXoXXXoo ooXXoXXXXoXXoo ",
"oXXXXXXXXX.XXXXo oXXXXX.XX.XXXo ",
".XXXXXX..XX.XXX. .XXXX..XXX.XX. ",
"..XXXX..XXX..X.. ..X...XX.XXX.. ",
"...X.....X...... ..........X... ",
" ..............   ............  ",
"                                "
};
