/* XPM */
static char * key_xpm[] = {
"32 32 96 2",
"  	c #564064",
". 	c #2F2E2F",
"+ 	c #3E2F5A",
"@ 	c #39314B",
"# 	c #863D1C",
"$ 	c #FFC950",
"% 	c #B86F50",
"& 	c #FFA300",
"* 	c #FFE09B",
"= 	c #897774",
"- 	c #61392E",
"; 	c #58240C",
"> 	c #F2D9D8",
", 	c #D77574",
"' 	c #200902",
") 	c #F7D0D0",
"! 	c #C07874",
"~ 	c #632A10",
"{ 	c #D8BFBD",
"] 	c #FBD5D5",
"^ 	c #D50707",
"/ 	c #290000",
"( 	c #F77373",
"_ 	c #FAE8E8",
": 	c #6A3448",
"< 	c #FAD1D1",
"[ 	c #E57A78",
"} 	c #F10F0B",
"| 	c #0A0000",
"1 	c #F40B0A",
"2 	c #EA9E9C",
"3 	c #EDD1D0",
"4 	c #8A200C",
"5 	c #F1ABAA",
"6 	c #F7D1D1",
"7 	c #F55959",
"8 	c #EC150D",
"9 	c #060000",
"0 	c #E03630",
"a 	c #F9BCBC",
"b 	c #7E605A",
"c 	c #723215",
"d 	c #F7C3C3",
"e 	c #F6C3C3",
"f 	c #DA0E09",
"g 	c #350100",
"h 	c #F50A0A",
"i 	c #F6D3D3",
"j 	c #BE9D9B",
"k 	c #F9D0D0",
"l 	c #F37474",
"m 	c #000000",
"n 	c #ED150C",
"o 	c #F40C0A",
"p 	c #F4BCBC",
"q 	c #E1D5D5",
"r 	c #EFA6A6",
"s 	c #F78D8D",
"t 	c #F30C0A",
"u 	c #EB100B",
"v 	c #010000",
"w 	c #DB2211",
"x 	c #F7BBBB",
"y 	c #D1BCBB",
"z 	c #DB9D9B",
"A 	c #FBC3C3",
"B 	c #F40A0A",
"C 	c #ED150E",
"D 	c #F42D2D",
"E 	c #EF7574",
"F 	c #FFFEFE",
"G 	c #775E59",
"H 	c #FAC4C4",
"I 	c #EC9C9A",
"J 	c #F65959",
"K 	c #2A2A2A",
"L 	c #F89898",
"M 	c #EFD1D0",
"N 	c #958B89",
"O 	c #F1C4C3",
"P 	c #ECABAA",
"Q 	c #737373",
"R 	c #F5D0D0",
"S 	c #E1B145",
"T 	c #51210B",
"U 	c #4C1E09",
"V 	c #F99F00",
"W 	c #F49C00",
"X 	c #542620",
"Y 	c #AC684F",
"Z 	c #ED981B",
"` 	c #EDBB4F",
" .	c #302E2E",
"..	c #383130",
"+.	c #40352E",
"@.	c #403930",
"                    . . .                         . . .         ",
"      +               .             +       +       .           ",
"+ + + + +     + +     .     + +   + + +   + + +     .     + +   ",
"+ + + @ + + + + + @   .   @ + + + + + + + + + + @   .   @ + + + ",
"+ + @ @ + + + + @ @ @ . @ # # # # # # # + + + @ @ @ . @ @ @ + + ",
"@ @ @ @ @ @ + @ @ @ @ # # $ $ $ $ $ $ $ # # @ @ @ @ . @ @ @ @ + ",
"@ @ @ @ @ @ @ @ @ @ # % % & & & & & & * $ * # @ @ . . . @ @ @ @ ",
". . . . . . . . . # % & & & $ = - ; ; % & $ * # . . . . . . . . ",
"    . . .       # % & & & $ - > , ' ) ! % & $ * #               ",
"      .       # % & & & $ ~ { ] ^ / ( _ ; % & $ * #       +     ",
"+ +   .   + + # % & & $ ; : < [ } | 1 2 3 ; % $ $ # +   + + + + ",
"@ + + . + + # % & & & $ 4 5 6 7 8 9 1 0 a b % & $ $ # + + + + + ",
"@ @ @ . @ @ # % & & & $ c d e 1 f g h 8 i j % & $ $ # @ @ @ @ @ ",
"@ @ . . . @ # % & & & $ c k l 1 1 m n o p q % & $ $ # @ @ @ @ @ ",
". . . . . . ; % & & & $ ; r s t u v h w x y % & $ $ ; . . . . . ",
"            ; % & & & $ ~ z A B C 9 D E F ; % & $ $ ; . .       ",
"    + +       ; % & & & $ G H I J K L M ; % & $ $ ;   .         ",
"+ + + + +   + ; % & & & & $ N O P Q R 4 % & & $ $ ;   .     +   ",
"+ + @ @ + + + @ ; % & & & & S T T U ; % & $ $ $ ; @   .   @ + + ",
"+ @ @ + + + @ @ @ ; % & & & V W W V & & $ $ $ ; @ @ @ . @ @ @ + ",
"@ @ @ @ @ @ @ @ @ . ; % % & & & & & & $ $ ; ; @ @ @ @ . @ @ @ @ ",
"@ @ @ @ @ @ @ @ . . . X X Y Z Z Z Z ` ` X @ @ @ @ @ . . . @ @ @ ",
". . . . . . . . . . . . .  ...+.+.+.@.@. .. . . . . . . . . . . ",
".                             . . .                         . . ",
"      +                 +       .             +               . ",
"    + + + +   + + +   + + +     .     + +   + + + +   + +     . ",
"  + + + + + + + + + @ + + + +   .   + + + + + @ + + @ + + +   . ",
"@ + + + + + + @ @ + + @ + + + @ . @ + + + + @ @ + + + @ + + @ . ",
"@ @ + + + + @ @ + + + @ @ + @ @ . @ @ + @ @ @ + + @ + + + @ @ . ",
"@ @ @ + @ @ @ @ @ + @ @ @ @ @ @ . @ @ @ @ @ @ @ @ @ @ + @ @ @ . ",
". @ @ @ @ @ @ @ @ @ @ @ @ @ @ . . . @ @ @ @ @ @ @ @ @ @ @ @ . . ",
". . . . . . . . . . . . . . . . . . . . . . . . . . . . . . . . "};
