/* XPM */
static char * player_up_xpm[] = {
"32 32 17 1",
" 	c #564064",
".	c #2F2E2F",
"+	c #3E2F5A",
"@	c #FFFFFF",
"#	c #39314B",
"$	c #471323",
"%	c #591E30",
"&	c #F4F3F3",
"*	c #FF0000",
"=	c #B1B1B1",
"-	c #C2A38C",
";	c #AF9079",
">	c #9E8677",
",	c #B8977F",
"'	c #242424",
")	c #000000",
"!	c #383838",
"          ...            ...    ",
"   +       .      +   +   .     ",
"+++++  ++  .  +@@+++ +++  .  ++ ",
"+++#+++++# . @+$$$$+++++# . #+++",
"++##++++###@@$#+$$$$$$+###.###++",
"######+###$$$$###$$$$$$###.####+",
"#########$$$%#&*&==$$$$$#...####",
".....@@&$$$%$&&&*&==$%$$$.......",
"  ..@@&$$$$%&&&@&&&==$%$$$      ",
"   .@@&$$$%$&&&&&@*  $$%$$   +  ",
"++ .@&$$$%$$&&&--*-;>$$%$$$ ++++",
"#++.+&$$$%$$,,*---,,$$$%$$$+++++",
"###.##$$$%$%$,,,,--$$%$$%$$$####",
"##...$$$$%$%$$---$,$$$%$%$$$####",
".....$$$%$%$$$,$,$$$$$%$%$$$....",
"     $$$%$%$$$$$,$$$$$%$%$$$.   ",
"  ++ $$$%$%$$$$$,$$$$$%$%$$.    ",
"+++++$$$%$%$$$$$;;$$$%$$%$$.  + ",
"++##+$$$%$%$$$$''))+$$$$%$$. #++",
"+##++$$$%$$%$$)'')))+$$%$$#.###+",
"######$$$%$$%$'''))))+%$$$#.####",
"#######$$$%$%$''!')))#$$$#...###",
".......$$$$%%$'!!')))$$$........",
".       $$$$%$$!..))$$$       ..",
"   +     $$$%$$$. )))  +       .",
"  ++++ +++ $$%$$$ '') ++++ ++  .",
" +++++++++#+$$$$' ''+++#++#+++ .",
"#++++++##++#++)!!#''++##+++#++#.",
"##++++##+++##+#!!##+###++#+++##.",
"###+#####+#####!!##########+###.",
".##############...############..",
"................................"};
