/* XPM */
static char * player_xpm[] = {
"32 32 19 1",
" 	c #564064",
".	c #471323",
"+	c #2F2E2F",
"@	c #3E2F5A",
"#	c #591E30",
"$	c #F4F3F3",
"%	c #FFFFFF",
"&	c #39314B",
"*	c #FF0000",
"=	c #EFEFEF",
"-	c #78D1D5",
";	c #000000",
">	c #B8977F",
",	c #CCAB93",
"'	c #BDBDBD",
")	c #DCBEA7",
"!	c #CACACA",
"~	c #313131",
"{	c #565656",
"       ...+++          ...++    ",
"   @###.#$%+      @   %$#.###   ",
"@@@##...#$$%  @@ @@@ %$$#...##@ ",
"@@@#....## % &@@@@@@@%@##.#..#@@",
"@@##.##.&&&+&&&*%%@@@@@&&..#.##@",
"&&#%%%.&&&&+&&$$*=%&&@&&&&.%%%#@",
"&#%--%%.&&+++$$--==*&&&&&.%--%%#",
"+#%;%-%#.++++$*;=-*%++++..%;%-%#",
" #%;;-%#....>*=;;-=%>....#%;;-%#",
" ##%%%###..,,'$=*=='>,..###%%%##",
"@#)#.###..),>>'$=*''>,).####..)#",
"&,)#.)##.),,>''!''!',,,)###).#),",
"&,),.)##),,>,'!!!'!>,>,,)##)#,),",
"&&))),,,,,,.,>!'!!!>,.,,,,,,)))&",
"+++,,))),,..>,!!'!',>..,,))),,++",
"    #),,,#...>'!'!,>...#,,,)#   ",
"  @@##..#.. ;;>'!!>;@@..##.##   ",
"@@@@@##... ;~;;;!;;;;@@..#.#  @ ",
"@@&&@@#..+ ;~~~;';;;;;&@...+ &@@",
"@&&@@@&&&+;{~~~;;;~~;;@@&&&+&&&@",
"&&&&&&&&&+{{{{&&&&~~~~~&&&&+&&&&",
"&&&&&&&&++;{{~&&&&&~~~~&&&+++&&&",
"+++++++++++~{~~++++{{{~+++++++++",
"+           ~~~~++~{{{        ++",
"   @        @~~;+~~~~  @       +",
"  @@@@ @@@ @@@;;+;~~@ @@@@ @@  +",
" @@@@@@@@@&@@@;;+;;@@@@&@@&@@@ +",
"&@@@@@@&&@@&@@@&+;;@@@&&@@@&@@&+",
"&&@@@@&&@@@&&@&&+&&@&&&@@&@@@&&+",
"&&&@&&&&&@&&&&&&+&&&&&&&&&&@&&&+",
"+&&&&&&&&&&&&&&+++&&&&&&&&&&&&++",
"++++++++++++++++++++++++++++++++"};
