/* XPM */
static char * player_righ_xpm[] = {
"32 32 21 1",
" 	c #564064",
".	c #2F2E2F",
"+	c #3E2F5A",
"@	c #471323",
"#	c #39314B",
"$	c #591E30",
"%	c #FF0000",
"&	c #F4F3F3",
"*	c #FFFFFF",
"=	c #78D1D5",
"-	c #000000",
";	c #BDBDBD",
">	c #757575",
",	c #CACACA",
"'	c #B8977F",
")	c #C2A38C",
"!	c #DCBEA7",
"~	c #AF9079",
"{	c #1C1C1C",
"]	c #242424",
"^	c #383838",
"          ...            ...    ",
"   +       .      +   +   .     ",
"+++++  ++  .  ++ @@+ +++  .  ++ ",
"+++#+++++# . @+++@@@++++# . #+++",
"++##++++###@@$@+%&&@@++###.###++",
"######+###@@$@@%&***@@####.####+",
"#########@@$@#&&***==@###...####",
".........@$$..&%**%-*@@.........",
"  ...   @@$$  %;*%=--@@         ",
"   .    @$$@  ;;;&**>@@  +   +  ",
"++ . ++@@$$@&&&;;;&;,@@ +++ ++++",
"#++.+++@@$$@&*==';;,;;@+++++++++",
"###.###@@$$@&=-*';;;,;@##++#####",
"##...##@@$$@&=--)';,;;@#########",
".......@@$$@&**!)'~,;@@.........",
"       @@$$@!'!!))';;@@   ...   ",
"  ++   @@$$@!!!'')';@@@    .    ",
"+++++ +@@$$@@! {''''@@+ +  .  + ",
"++##+++@@@$$@++]]]]]###++# . #++",
"+##+++##@@@$$@]]]^^]]+++###.###+",
"########@@@@$$@]]^^^]++####.####",
"########.@@@$$$@{]^^]#####...###",
"..........@@@$$${]^^]...........",
".          @@@$$$]^]]         ..",
"   +        @@@@]^^]   +       .",
"  ++++ +++ +++ ]]^^]+ ++++ ++  .",
" +++++++++#++++-]]]++++#++#+++ .",
"#++++++##++#+++-]^++++##+++#++#.",
"##++++##+++##+#-]^#+###++#+++##.",
"###+#####+######]]#########+###.",
".##############...############..",
"................................"};
