/* XPM */
static char * potion_red_xpm[] = {
"32 32 22 1",
" 	c #564064",
".	c #2F2E2F",
"+	c #3E2F5A",
"@	c #7C421C",
"#	c #B86F50",
"$	c #E7925B",
"%	c #FFBA8D",
"&	c #FFD5BA",
"*	c #39314B",
"=	c #3A4466",
"-	c #616D94",
";	c #89CBD0",
">	c #874A31",
",	c #FFFFFF",
"'	c #EEFEFF",
")	c #AFEEF2",
"!	c #B03152",
"~	c #FF0044",
"{	c #FFE6E7",
"]	c #F6757A",
"^	c #FFB6B9",
"/	c #FA8D91",
"          ...            ...    ",
"   +     @@@@@@@@@@@@@@   .     ",
"+++++  +@######$$$$$%%&@  .  ++ ",
"+++*++++@######$$$$$$$%@* . *+++",
"++**++++@######$$$$$$$$@**.***++",
"******=========-----------.****+",
"*****=;;>##############>,'-.****",
".....=;)>######$$$$$$$$>,'-.....",
"  ...=;)>>>>>>>>>>>>>>>>,'-     ",
"   . =;);;;;;;;''''''''','-  +  ",
"++ . +=;)!!!!!!~~~~~~~~~'-+ ++++",
"*++.+++=!!!!!!!~~~~~~~~{-+++++++",
"***.***=!]!!!!!~~~~~^^~{=++*****",
"**...**=!]!/!!!~~~~~^^~{=*******",
".......=!]!!!!!~~~~~^^~{=.......",
"       =!]!!!!!~~~~~^^~{= ...   ",
"  ++   =!]!!!!!~/~~~^^~{=  .    ",
"+++++ +=!]!!!!!/~/~~^^~{=  .  + ",
"++**+++=!]!!!!!~/~~~^^~{=* . *++",
"+**+++*=!]!!!!!~~~~~^^~{=**.***+",
"*******=!]!!!!!~~~~~^^~{=**.****",
"*******=!]!!!!!~~~~~^^~{=*...***",
".......=!]!!!!!~~~~~^^~{=.......",
".      =!]!!/!!~~~~~^^~{=     ..",
"   +   =!!!/!/!~~~~~^^~{=      .",
"  ++++ =!]!!/!!~~~~~^^~{=+ ++  .",
" +++++++=!]!!~!~~~~~^~{=++*+++ .",
"*++++++*=!]!!!!~~~/~~!{=+++*++*.",
"**++++**+=!!!!!~~~~~!{=++*+++**.",
"***+*****=!!!!!!!!!!!{=****+***.",
".*********============********..",
"................................"};
