/* XPM */
static char *_a4ee4808e0548b3b364f6bef35b3aeeghJB8Q5oA40OnabW[] = {
/* columns rows colors chars-per-pixel */
"32 32 6 1 ",
"  c #2F2E2F",
". c #302C2E",
"X c #3E2F5A",
"o c #564064",
"O c #85578E",
"+ c #BE9BB0",
/* pixels */
"OO   OOOOOOOOOOOOOO   OOOOOOOOOO",
"OOO OOOOOOOOoOOOOOOO OOOOOOoOOOo",
"oOO OOooOooooooOooOO OOooOoooOoo",
"oXO OXooooooXoXoooXO OXooooooXoo",
"XXX XXXooooXXooooXXX XXXoXXooooo",
"XXX XXXXoXXXXXXoXXXX XXXXXXXXXoX",
"XX   XXXXXXXX..XXXX   XXXXXXXXXX",
"                                ",
"OOOOO   ++++++++++++   OOO   OOO",
"OOoOOO OooOOOOOOOOooO OOOOO OOOO",
"OooooO XXooOoOOooooXX oooOO OOoo",
"oooooo  XXooooooooXX  ooXXO OXXo",
"XXooXX    XXoXXoXX    XXXXX XXXX",
"XXXXX       XXXX       XXX   XXX",
"                                ",
"OOO   OOOOOOOOOOO   OOOOOOOOOOOO",
"OOOO OOOOOOooOOOOO OOOOOOOOOOooO",
"OoOO OOoOoooooOoOO OOooOoooOoooo",
"ooXO OXooooXXoooXO OXooooXoooXXX",
"oXXX XXXooXXoooXXX XXXooXXXooooo",
"XXXX XXXXXXXXXXXXX XXXXXXXXXXXoo",
"XXX   XXXXXXXXXXX   XXXXXXXXXXXX",
"                                ",
"OOOOOOO   OOOOOOOOOOOOOO   OOOOO",
"oOOOOOOO OOOoOOOOOOOOoOOO OOOOOO",
"oooOooOO OOooooOoooOoooOO OOooOo",
"XooXoooO OooXooooooXooooO Oooooo",
"XoooXooX XoooXooXXooXoooX XooooX",
"ooXoooXX XXooooXXoooXXoXX XXoXXX",
"XXXXoXXX XXXoXXXXXoXXXXXX XXXXXX",
"XXXXXXX   XXXXXXXXXXXXXX   XXXXX",
"                                "
};
